<svg xmlns="http://www.w3.org/2000/svg" viewBox="0 0 337.53 269.16"><defs><style>.cls-1{opacity:0.35;}.cls-2{fill:#d65aa0;}.cls-3{fill:#00a4e4;}.cls-4{fill:#46166b;}.cls-5{fill:#23bbb8;}.cls-6{fill:#261e36;}.cls-7{fill:#fff;}</style></defs><title>background</title><g id="Layer_2" data-name="Layer 2"><g id="Pattern"><g class="cls-1"><path class="cls-2" d="M101.05,230.42a9.5,9.5,0,1,1,9.5,9.5A9.52,9.52,0,0,1,101.05,230.42Zm3,0a6.5,6.5,0,1,0,6.5-6.5A6.51,6.51,0,0,0,104.05,230.42Z"/><path class="cls-3" d="M52.9,179.44a6.17,6.17,0,1,1-6.17,6.17A6.18,6.18,0,0,1,52.9,179.44Zm0,3a3.17,3.17,0,1,0,3.17,3.17A3.18,3.18,0,0,0,52.9,182.44Z"/><path class="cls-4" d="M66.19,267.82a2.29,2.29,0,0,0-2.08,1.34h4.16A2.28,2.28,0,0,0,66.19,267.82Z"/><path class="cls-4" d="M26.46,193.88a2.29,2.29,0,1,0,2.29-2.29A2.28,2.28,0,0,0,26.46,193.88Z"/><path class="cls-2" d="M31.71,249a2.29,2.29,0,1,0-2.29-2.29A2.3,2.3,0,0,0,31.71,249Z"/><path class="cls-2" d="M33.64,227.09a6.17,6.17,0,1,1,6.16,6.17A6.17,6.17,0,0,1,33.64,227.09Zm3,0a3.17,3.17,0,1,0,3.16-3.17A3.17,3.17,0,0,0,36.64,227.09Z"/><path class="cls-5" d="M22.51,269a5.87,5.87,0,0,0-4.22.12l-.11.06h5.13A7.14,7.14,0,0,1,22.51,269Z"/><path class="cls-5" d="M28.43,268.09c.28-.85.38-1,.8-1.2s1,0,1.85.34a6.3,6.3,0,0,0,4.3.45,1.5,1.5,0,0,0-.85-2.88,3.61,3.61,0,0,1-2.38-.37,5.34,5.34,0,0,0-4-.35,4.26,4.26,0,0,0-2.61,3.06,3.32,3.32,0,0,1-.46,1c-.55.65-.92.92-1.32,1H28A9.38,9.38,0,0,0,28.43,268.09Z"/><path class="cls-6" d="M82.92,226.77l.24,0a11.94,11.94,0,0,0,4.2-1.53,1.5,1.5,0,1,0-1.54-2.57,9,9,0,0,1-3.14,1.14,1.5,1.5,0,0,0,.24,3Z"/><path class="cls-6" d="M82.21,215.17a1.51,1.51,0,0,0-2.12.12,17.21,17.21,0,0,1-3.35,3.07,1.5,1.5,0,0,0,.81,2.76,1.48,1.48,0,0,0,.8-.23,19.84,19.84,0,0,0,4-3.6A1.5,1.5,0,0,0,82.21,215.17Z"/><path class="cls-6" d="M49,210.26a1.5,1.5,0,0,0,2.24.56c1.4-1,3-2.06,4.57-3.06s3-1.91,4.36-2.91a1.5,1.5,0,0,0-1.75-2.44c-1.32,1-2.8,1.9-4.23,2.82-1.08.7-2.19,1.4-3.25,2.13a65.25,65.25,0,0,1-3-7.15,1.5,1.5,0,1,0-2.88.81A86.14,86.14,0,0,0,49,210.26Z"/><path class="cls-4" d="M63.06,235.56c2.11-1.48,4.51-3.16,4.14-5.82-.47-3.32-4.46-4.29-8-5.16a17,17,0,0,1-3.64-1.13,3.69,3.69,0,0,1,1.72-1c2.14-.71,4.56-.58,5.08-.24a1.5,1.5,0,0,0,2.08-2.16c-1.56-1.54-5.3-1.15-7.07-.74-2.53.61-4.22,1.79-4.75,3.33a2.63,2.63,0,0,0,.16,2.13c.84,1.53,3,2.06,5.7,2.72,2.21.54,5.54,1.35,5.72,2.65.12.85-1.47,2-2.88,3-2,1.42-4.32,3-4.42,5.57-.08,1.8,1,3.62,3.33,5.54a1.5,1.5,0,0,0,1.92-2.31c-1.49-1.23-2.29-2.34-2.26-3.11C60,237.75,61.61,236.59,63.06,235.56Z"/><path class="cls-5" d="M86.87,260.48A30.94,30.94,0,0,0,81.48,265a1.5,1.5,0,1,0,2.25,2,28.57,28.57,0,0,1,4.88-4c2.68-1.9,5.45-3.87,6.94-6.63a1.49,1.49,0,0,0-.79-2.11c-3.44-1.31-7.41-1-11.24-.77-3.38.24-6.62.46-9.32-.35a41.5,41.5,0,0,1,7.24-3.52c5.87-2.44,11.94-5,12.18-9.54a1.5,1.5,0,0,0-1.33-1.57c-1.36-.15-2.77-.38-4.13-.59a55,55,0,0,0-8.29-.89h0a1.5,1.5,0,0,0,0,3,53.37,53.37,0,0,1,7.85.85c.8.13,1.61.26,2.43.37-1.51,2.14-6.05,4-9.83,5.6-4.58,1.9-8.54,3.55-10,6.07a1.52,1.52,0,0,0-.14,1.14,1.48,1.48,0,0,0,.71.91c3.79,2.14,8.4,1.82,12.85,1.51a33.12,33.12,0,0,1,8,.06A29.28,29.28,0,0,1,86.87,260.48Z"/><path class="cls-6" d="M9.25,257.09l.95.6c1.94,1.23,4.34,2.76,6.29,2.86h.08a1.5,1.5,0,0,0,.07-3c-1.1-.06-3.14-1.32-4.6-2.25.57-1.06,1.07-2.14,1.55-3.2a27.8,27.8,0,0,1,3.28-5.85,1.49,1.49,0,1,0-2.34-1.86,30.12,30.12,0,0,0-3.66,6.46A38.75,38.75,0,0,1,8.75,255,1.5,1.5,0,0,0,9.25,257.09Z"/><path class="cls-2" d="M8.71,204.52a1.5,1.5,0,0,0,1-2.64c-.83-.71-1.69-3-2.28-4.58,1.09-.5,2.14-1.06,3.17-1.6a27.61,27.61,0,0,1,6.15-2.65,1.5,1.5,0,1,0-.73-2.91,29.88,29.88,0,0,0-6.82,2.91,39.63,39.63,0,0,1-4.22,2A1.5,1.5,0,0,0,4.09,197c.13.32.26.68.4,1.06.78,2.15,1.77,4.83,3.25,6.09A1.49,1.49,0,0,0,8.71,204.52Z"/><path class="cls-5" d="M24.27,220.29c1.76.1,3.75.22,5.34-.89a1.49,1.49,0,0,0,.47-1.92c-1.49-2.84-5.51-4.45-8.78-5-1.84-.31-6.39-.79-9,1.62a1.5,1.5,0,0,0,2,2.21c1.11-1,3.65-1.36,6.47-.87a13.68,13.68,0,0,1,5.15,1.93c-.47,0-1,0-1.48-.06-2.13-.12-4.77-.28-6.58,1.8a3.73,3.73,0,0,0-1.12,3.25A4.15,4.15,0,0,0,19.21,225a1.51,1.51,0,0,0,1.38,2.1,1.44,1.44,0,0,0,.72-.19,8,8,0,0,0,1.59-1.23,1.5,1.5,0,0,0,.45-1.33,1.54,1.54,0,0,0-.83-1.12l-.85-.39a8.14,8.14,0,0,1-2-1.08,2,2,0,0,1,.43-.65C20.92,220.16,22.22,220.16,24.27,220.29Z"/><path class="cls-6" d="M55.1,259.75a6.2,6.2,0,0,0-3.82-.4,7,7,0,0,1-1.76.07.74.74,0,0,1-.07-.35c0-.49.44-.89,1.58-1.66S54.78,254.88,53,252c-1.67-2.66-6.91-2.64-8.61-2.42a1.5,1.5,0,0,0,.38,3c2-.26,5.17.21,5.69,1a1.14,1.14,0,0,1,.16.34,4.82,4.82,0,0,1-1.24,1c-1.22.82-3.05,2.06-2.9,4.35a3.36,3.36,0,0,0,1.11,2.42c1.15.95,2.68.79,4,.64a5,5,0,0,1,2,0,2.26,2.26,0,0,1,.47.34,4.48,4.48,0,0,1-.29.58,4.91,4.91,0,0,0-.47,4.46,1.49,1.49,0,0,0,1.38.92,1.47,1.47,0,0,0,.58-.12,1.5,1.5,0,0,0,.81-2c-.26-.62-.11-1,.36-1.89C57,263.64,58.11,261.5,55.1,259.75Z"/><path class="cls-5" d="M91,194.67a1.5,1.5,0,0,0-2.23-2c-1.9,2.11-9.3,8.14-12.86,8a1.15,1.15,0,0,1-1-.41,2,2,0,0,1-.33-1.83c.62-3.08,4.93-7.22,7-8.35a1.5,1.5,0,0,0-1.46-2.63c-2.5,1.39-7.62,6.18-8.46,10.4a5.08,5.08,0,0,0,.92,4.28,4.15,4.15,0,0,0,3.25,1.54h.17C81.08,203.68,89.2,196.6,91,194.67Z"/><path class="cls-7" d="M115.27,268.1a5.37,5.37,0,0,0,3,1,4.48,4.48,0,0,0,1.25-.17,4.18,4.18,0,0,0,2.7-2.38c2.17-4.65-1.18-15.11-2.28-17.5a1.5,1.5,0,1,0-2.73,1.25c1.18,2.58,3.81,11.74,2.29,15-.26.56-.55.7-.77.76a2,2,0,0,1-1.81-.43c-2.6-1.78-4.69-7.37-4.93-9.7a1.5,1.5,0,1,0-3,.3C109.34,259.07,111.73,265.66,115.27,268.1Z"/><path class="cls-4" d="M96.54,211.9l.28,0a1.49,1.49,0,0,0,1.47-1.22c.27-1.38,1.1-1.69,3.06-2.11,1.49-.32,3.53-.75,4.08-2.85.63-2.37-1.28-3.81-2.54-4.77-.45-.34-1.21-.91-1.28-1.16,0-.63-.07-.92,2.68-1.2a6.81,6.81,0,0,0,3.8-1.13,4.4,4.4,0,0,0,1.55-4.52,5.19,5.19,0,0,0-4.08-3.63,1.5,1.5,0,1,0-.59,2.95,2.19,2.19,0,0,1,1.77,1.44,1.4,1.4,0,0,1-.6,1.48,6.84,6.84,0,0,1-2.15.43c-2,.2-5.67.57-5.37,4.42.12,1.55,1.37,2.49,2.46,3.32s1.55,1.24,1.45,1.61-1,.51-1.8.68c-1.88.4-4.72,1-5.38,4.48A1.5,1.5,0,0,0,96.54,211.9Z"/><path class="cls-6" d="M334.26,88.79a2.29,2.29,0,0,0,2.29,2.29,2.31,2.31,0,0,0,1-.23V86.73a2.17,2.17,0,0,0-1-.23A2.28,2.28,0,0,0,334.26,88.79Z"/><path class="cls-2" d="M326.07,140.7a9.51,9.51,0,0,0,9.5,9.5,9.72,9.72,0,0,0,2-.2v-3.1a6.38,6.38,0,0,1-2,.3,6.5,6.5,0,0,1,0-13,6.38,6.38,0,0,1,2,.31v-3.1a9.72,9.72,0,0,0-2-.21A9.52,9.52,0,0,0,326.07,140.7Z"/><path class="cls-2" d="M294,209.3a9.5,9.5,0,1,1,9.5-9.5A9.52,9.52,0,0,1,294,209.3Zm6.5-9.5a6.5,6.5,0,1,0-6.5,6.5A6.51,6.51,0,0,0,300.47,199.8Z"/><path class="cls-3" d="M284.09,95.89a6.17,6.17,0,1,1-6.17-6.17A6.17,6.17,0,0,1,284.09,95.89Zm-3,0a3.17,3.17,0,1,0-3.17,3.16A3.17,3.17,0,0,0,281.09,95.89Z"/><path class="cls-6" d="M249.25,222.62a6.17,6.17,0,1,1,6.16,6.17A6.17,6.17,0,0,1,249.25,222.62Zm3,0a3.17,3.17,0,1,0,3.16-3.17A3.17,3.17,0,0,0,252.25,222.62Z"/><path class="cls-4" d="M288.92,180.39a2.29,2.29,0,1,0,2.29-2.29A2.3,2.3,0,0,0,288.92,180.39Z"/><path class="cls-4" d="M256.06,104.16a2.29,2.29,0,1,0-2.29,2.29A2.3,2.3,0,0,0,256.06,104.16Z"/><path class="cls-2" d="M254.44,157a2.29,2.29,0,1,0,2.29-2.29A2.29,2.29,0,0,0,254.44,157Z"/><path class="cls-5" d="M264.21,209.22a2.29,2.29,0,1,0-2.29-2.29A2.29,2.29,0,0,0,264.21,209.22Z"/><path class="cls-2" d="M337.53,258.41a2.28,2.28,0,0,0,0,4.51Z"/><path class="cls-3" d="M310.23,260.67a2.29,2.29,0,1,0-2.29-2.29A2.29,2.29,0,0,0,310.23,260.67Z"/><path class="cls-6" d="M226.33,268.23a2.29,2.29,0,1,0-4.58,0,2.25,2.25,0,0,0,.2.93h4.18A2.42,2.42,0,0,0,226.33,268.23Z"/><path class="cls-2" d="M264.82,143.54a6.17,6.17,0,1,1,6.17-6.17A6.17,6.17,0,0,1,264.82,143.54Zm0-3a3.17,3.17,0,1,0-3.16-3.17A3.17,3.17,0,0,0,264.82,140.54Z"/><path class="cls-4" d="M316.8,209a1.5,1.5,0,0,0,1.5-1.5v-26a1.5,1.5,0,1,0-3,0v26A1.5,1.5,0,0,0,316.8,209Z"/><path class="cls-4" d="M328,197.77l-3.06-3.31,3.06-3.32a1.49,1.49,0,0,0,0-2l-3.06-3.31,3.06-3.32a1.5,1.5,0,1,0-2.2-2l-4,4.33a1.49,1.49,0,0,0,0,2l3.06,3.32-3.06,3.31a1.49,1.49,0,0,0,0,2l3.06,3.32-3.06,3.32a1.51,1.51,0,0,0,0,2l4,4.33a1.49,1.49,0,0,0,2.12.09,1.49,1.49,0,0,0,.08-2.12l-3.06-3.32,3.06-3.32A1.51,1.51,0,0,0,328,197.77Z"/><path class="cls-5" d="M297.31,261.13c1.43-3,2.91-6.17,3.08-9.72.2-4-.71-6.77-2.77-8.36-3.32-2.56-8.68-1.16-13.45.35a1.5,1.5,0,1,0,.91,2.86c4.34-1.37,8.64-2.43,10.71-.83,1.21.93,1.75,2.89,1.61,5.84s-1.44,5.69-2.8,8.59a30.5,30.5,0,0,0-2.89,8c-.07.46-.12.9-.16,1.33h3c0-.28.07-.55.11-.84A28.4,28.4,0,0,1,297.31,261.13Z"/><path class="cls-5" d="M232.27,188.83a1.51,1.51,0,0,0,1.42-2,.08.08,0,0,1,0,0,14.47,14.47,0,0,1,3.43.32,10,10,0,0,0,1.81.21c3.26-.15,4-2.15,4.41-3.47.32-.94.5-1.4,1.2-1.7a3,3,0,0,1,2.24,0c1.45.38,3.42.91,5.68-1.78a5.79,5.79,0,0,0,1-2c.29-.85.39-1,.8-1.2s1,0,1.86.34a6.3,6.3,0,0,0,4.3.45,1.5,1.5,0,0,0-.85-2.88,3.61,3.61,0,0,1-2.38-.37,5.34,5.34,0,0,0-4-.35,4.26,4.26,0,0,0-2.61,3.06,3.32,3.32,0,0,1-.46,1c-1,1.23-1.43,1.12-2.61.81a5.87,5.87,0,0,0-4.22.12,5.16,5.16,0,0,0-2.83,3.47c-.39,1.13-.48,1.4-1.69,1.45-.17,0-.75-.1-1.18-.17-2.26-.39-5.08-.87-6.41.71a2.89,2.89,0,0,0-.34,3A1.5,1.5,0,0,0,232.27,188.83Z"/><path class="cls-6" d="M307.94,137.05l.24,0a11.94,11.94,0,0,0,4.2-1.53,1.5,1.5,0,1,0-1.54-2.57,9,9,0,0,1-3.14,1.14,1.5,1.5,0,0,0,.24,3Z"/><path class="cls-6" d="M307.23,125.45a1.5,1.5,0,0,0-2.12.12,17.21,17.21,0,0,1-3.35,3.07,1.5,1.5,0,0,0,.81,2.76,1.48,1.48,0,0,0,.8-.23,19.84,19.84,0,0,0,4-3.6A1.5,1.5,0,0,0,307.23,125.45Z"/><path class="cls-6" d="M276,117.64a65.25,65.25,0,0,1-3-7.15,1.5,1.5,0,1,0-2.89.81,85.68,85.68,0,0,0,3.92,9.24,1.5,1.5,0,0,0,2.24.56c1.4-1,3-2.06,4.56-3.06s3-1.91,4.37-2.91a1.5,1.5,0,0,0-1.75-2.43c-1.32.94-2.8,1.89-4.24,2.81C278.12,116.21,277,116.91,276,117.64Z"/><path class="cls-7" d="M273.33,264.11c3.57-1.07,7.41.08,8.32,1.06a1.5,1.5,0,0,0,2.2-2c-1.82-2-6.94-3.23-11.38-1.9-4.64,1.39-5.94,6-6.45,7.93h3.12C269.81,267,270.9,264.84,273.33,264.11Z"/><path class="cls-4" d="M293,226.09c-7,2.35-18.88,6.3-20.29,6.3a2.11,2.11,0,0,1-.56-.09,1.5,1.5,0,0,1-.92-1.91l5.62-16.46.06-.15a1.62,1.62,0,0,1,1.49-.92c1.12,0,2.64,1,9.6,6.5,2.22,1.74,4.31,3.38,5.34,4.06a1.5,1.5,0,0,1,.67,1.44A1.51,1.51,0,0,1,293,226.09Zm-3.7-1.92c-.93-.71-2-1.55-3.15-2.45-2.2-1.73-5.28-4.16-7-5.29l-4.22,12.35C278.05,227.87,283.7,226,289.29,224.17Z"/><path class="cls-3" d="M233.25,199.86a1.47,1.47,0,0,1,.31-1.56,1.5,1.5,0,0,1,1.54-.4c13.55,4.22,13.78,4.56,14.14,5.07a1.49,1.49,0,0,1-.37,2.08l-9.62,6.79-.14.08a1.57,1.57,0,0,1-.76.2h0c-1.48,0-1.8-.9-3.8-8C234,202.35,233.54,200.63,233.25,199.86Zm3.69,1.76c.15.54.32,1.12.49,1.73.42,1.47,1,3.65,1.5,5l5.93-4.18C242.9,203.53,240,202.58,236.94,201.62Z"/><path class="cls-4" d="M284.23,134.86a17,17,0,0,1-3.63-1.13,3.69,3.69,0,0,1,1.72-1c2.14-.71,4.56-.58,5.08-.24a1.5,1.5,0,0,0,2.08-2.16c-1.56-1.54-5.31-1.15-7.07-.74-2.54.61-4.22,1.79-4.75,3.33a2.59,2.59,0,0,0,.16,2.13c.84,1.53,3,2.06,5.7,2.72,2.21.54,5.54,1.35,5.72,2.65.12.85-1.47,2-2.88,3-2,1.42-4.32,3-4.43,5.57-.07,1.8,1,3.62,3.34,5.54a1.46,1.46,0,0,0,1,.35,1.51,1.51,0,0,0,1-2.66c-1.49-1.23-2.29-2.34-2.26-3.11,0-1.05,1.7-2.21,3.15-3.24,2.11-1.48,4.5-3.16,4.13-5.82C291.75,136.7,287.76,135.72,284.23,134.86Z"/><path class="cls-5" d="M320.57,166.57a1.47,1.47,0,0,0,.09-1.23,1.5,1.5,0,0,0-.88-.88c-3.44-1.31-7.41-1-11.24-.77-3.38.24-6.62.46-9.32-.36a42.25,42.25,0,0,1,7.24-3.51c5.87-2.44,11.94-5,12.18-9.54a1.51,1.51,0,0,0-1.33-1.57c-1.36-.15-2.77-.38-4.13-.59a55,55,0,0,0-8.29-.89h0a1.5,1.5,0,0,0,0,3,53.37,53.37,0,0,1,7.85.85c.8.13,1.61.26,2.43.37-1.51,2.14-6.05,4-9.83,5.6-4.58,1.9-8.54,3.54-10,6.07a1.51,1.51,0,0,0,.57,2c3.79,2.14,8.4,1.82,12.85,1.51a33.12,33.12,0,0,1,8.05.06,29.28,29.28,0,0,1-4.91,4,30.58,30.58,0,0,0-5.39,4.47,1.5,1.5,0,1,0,2.25,2,28.57,28.57,0,0,1,4.88-4C316.31,171.3,319.08,169.33,320.57,166.57Z"/><path class="cls-6" d="M241.89,156.55a1.5,1.5,0,1,0-2.35-1.87,30.5,30.5,0,0,0-3.65,6.46,38.75,38.75,0,0,1-2.12,4.17,1.5,1.5,0,0,0,.5,2.06l1,.6c1.93,1.23,4.33,2.76,6.28,2.86h.08a1.5,1.5,0,0,0,.07-3c-1.1-.06-3.14-1.33-4.6-2.25.57-1.06,1.07-2.14,1.55-3.2A27.47,27.47,0,0,1,241.89,156.55Z"/><path class="cls-2" d="M241,100.42a29.88,29.88,0,0,0-6.82,2.91,39.63,39.63,0,0,1-4.22,2,1.5,1.5,0,0,0-.86,1.94c.13.32.26.68.4,1.06.78,2.15,1.77,4.83,3.25,6.09a1.49,1.49,0,0,0,1,.35,1.5,1.5,0,0,0,1-2.64c-.84-.71-1.69-3-2.28-4.58,1.09-.5,2.14-1.06,3.17-1.6a27.61,27.61,0,0,1,6.15-2.65,1.5,1.5,0,0,0-.73-2.91Z"/><path class="cls-3" d="M245.29,269a2.65,2.65,0,0,0-1.93.12h2.16A2.53,2.53,0,0,0,245.29,269Z"/><path class="cls-7" d="M317.15,246.14a1.52,1.52,0,0,0,1.51-1.49,4.6,4.6,0,0,1,1.63-2.86c.33-.21.47-.15.51-.15a5.4,5.4,0,0,1,.41,1.71c.23,1.5.64,4.26,3.4,4.26h.15c2.15-.07,2.9-2.16,3.45-3.69a7.57,7.57,0,0,1,.72-1.64l.17-.06a9.19,9.19,0,0,1,.31,1.43,7.71,7.71,0,0,0,.66,2.37,1.5,1.5,0,1,0,2.63-1.45,6.1,6.1,0,0,1-.33-1.42c-.21-1.29-.48-2.91-1.81-3.64a3.08,3.08,0,0,0-2.78,0c-1.37.57-1.91,2.07-2.39,3.39a8.39,8.39,0,0,1-.73,1.71h-.08a6.45,6.45,0,0,1-.4-1.7c-.22-1.46-.48-3.27-2.14-4a3.47,3.47,0,0,0-3.38.35,7.33,7.33,0,0,0-3,5.35A1.5,1.5,0,0,0,317.15,246.14Z"/><path class="cls-4" d="M241.14,254c-1.64,2.1-4.7,6-1.3,9.34a6.75,6.75,0,0,0,4.58,1.52,8.32,8.32,0,0,0,1.93-.22,4.3,4.3,0,0,0,3.3-2.66,1.5,1.5,0,0,0-2.85-.94c-.09.26-.54.53-1.16.68a4.77,4.77,0,0,1-3.7-.53c-1.27-1.24-.54-2.65,1.57-5.35.32-.41.62-.8.88-1.16,1.67-2.36,3.1-4.83,2.32-6.94a3.82,3.82,0,0,0-2.93-2.31c-2.13-.53-4.24.27-6.28,1.05-2.19.83-4.08,1.55-5.69.68q-1.12-.61-1.26-1.26c-.23-1.17,1.51-3.3,2.9-5,2.17-2.67,4.64-5.71,3.18-8.59a1.5,1.5,0,1,0-2.68,1.35c.58,1.15-1.23,3.38-2.83,5.35-2,2.43-4,4.94-3.51,7.49a5,5,0,0,0,2.77,3.32c2.82,1.52,5.67.44,8.18-.52,1.69-.64,3.27-1.24,4.51-.94.45.12.76.28.82.45.13.34.05,1.33-1.95,4.16C241.71,253.28,241.43,253.63,241.14,254Z"/><path class="cls-2" d="M250.41,241.65c1.46-.61,1.79-.3,3,.87a17,17,0,0,0,1.41,1.23,7.83,7.83,0,0,0,4.25,1.55,8.22,8.22,0,0,1,2.22.49,4.86,4.86,0,0,1,2,1.85,7,7,0,0,0,3.26,2.73,4.81,4.81,0,0,0,2.5,0,3.71,3.71,0,0,1,1.11-.12,10.7,10.7,0,0,1,2,1.64c.31.3.6.56.82.75a1.46,1.46,0,0,0,1,.35,1.49,1.49,0,0,0,1.15-.53,1.51,1.51,0,0,0-.18-2.12c-.19-.16-.43-.38-.69-.63a9.54,9.54,0,0,0-3.18-2.32,5.25,5.25,0,0,0-2.56,0,4.64,4.64,0,0,1-.94.12,4.26,4.26,0,0,1-1.88-1.72,7.7,7.7,0,0,0-3.3-2.82,11.23,11.23,0,0,0-3-.68,4.88,4.88,0,0,1-2.79-.95,15.09,15.09,0,0,1-1.18-1c-1.34-1.25-3-2.82-6.26-1.44a1.5,1.5,0,1,0,1.17,2.76Z"/><path class="cls-2" d="M335.82,232.17a3.8,3.8,0,0,0,1.71,0V229.1a5.49,5.49,0,0,1-.89.18,4.29,4.29,0,0,1-2-1.6,7.71,7.71,0,0,0-3.47-2.6,11.08,11.08,0,0,0-3-.49,4.94,4.94,0,0,1-2.85-.76,15.68,15.68,0,0,1-1.24-1c-1.42-1.17-3.17-2.62-6.34-1a1.5,1.5,0,0,0,1.34,2.68c1.42-.7,1.77-.41,3.08.67a15.56,15.56,0,0,0,1.49,1.14,7.77,7.77,0,0,0,4.34,1.28,8.19,8.19,0,0,1,2.25.34,4.87,4.87,0,0,1,2.13,1.72A7,7,0,0,0,335.82,232.17Z"/><path class="cls-2" d="M325.65,266.74c-1.6.07-5.2.45-7.48,2.42h16.48C332.44,267.22,328.65,266.62,325.65,266.74Z"/><path class="cls-5" d="M237.3,124.36a1.5,1.5,0,0,0,2,2.21c1.11-1,3.65-1.36,6.47-.87a13.68,13.68,0,0,1,5.15,1.93c-.47,0-1,0-1.48-.06-2.13-.12-4.77-.28-6.58,1.8a3.73,3.73,0,0,0-1.12,3.25,4.13,4.13,0,0,0,2.46,2.61,1.51,1.51,0,0,0,1.38,2.1,1.47,1.47,0,0,0,.73-.19,7.85,7.85,0,0,0,1.57-1.23,1.47,1.47,0,0,0,.46-1.32,1.53,1.53,0,0,0-.84-1.13l-.84-.39a8.14,8.14,0,0,1-2-1.08,2,2,0,0,1,.43-.65c.79-.9,2.09-.89,4.14-.77,1.76.1,3.75.22,5.34-.89a1.49,1.49,0,0,0,.47-1.92c-1.49-2.83-5.52-4.45-8.78-5C244.48,122.43,239.93,122,237.3,124.36Z"/><path class="cls-3" d="M278.26,193.22a1.5,1.5,0,0,0-.34-3c-2.79.32-8.08-.63-10.37-3.2a4,4,0,0,1-.92-3.85,1.5,1.5,0,0,0-2.93-.68,7,7,0,0,0,1.61,6.53c2.73,3.06,8,4.26,11.52,4.26A12.43,12.43,0,0,0,278.26,193.22Z"/><path class="cls-6" d="M280.12,170a6.23,6.23,0,0,0-3.83-.4,6.89,6.89,0,0,1-1.75.07.65.65,0,0,1-.07-.35c0-.49.43-.89,1.58-1.66s3.75-2.53,1.94-5.43c-1.67-2.66-6.91-2.64-8.61-2.42a1.5,1.5,0,0,0,.38,3c2-.26,5.17.21,5.68,1a1.41,1.41,0,0,1,.17.34,5,5,0,0,1-1.24,1c-1.22.82-3.06,2.06-2.9,4.35a3.36,3.36,0,0,0,1.11,2.42c1.15.95,2.68.79,4,.64a5,5,0,0,1,2,0,2.26,2.26,0,0,1,.47.34,4.48,4.48,0,0,1-.29.58,4.85,4.85,0,0,0-.47,4.46,1.49,1.49,0,0,0,1.38.92,1.5,1.5,0,0,0,1.38-2.08c-.25-.62-.1-1,.37-1.89S283.13,171.78,280.12,170Z"/><path class="cls-3" d="M302.52,231a1.51,1.51,0,0,0,1.18.58,21.56,21.56,0,0,1,5.16.64,1.31,1.31,0,0,0,.39,0,1.5,1.5,0,0,0,.38-2.95,23.15,23.15,0,0,0-4.09-.66c.48-2.65.83-6.6-.65-9.14A1.5,1.5,0,0,0,302.3,221c.89,1.53.87,4.94-.05,8.69A1.5,1.5,0,0,0,302.52,231Z"/><path class="cls-5" d="M316,105a1.5,1.5,0,1,0-2.22-2c-1.9,2.1-9.29,8.11-12.87,8a1.15,1.15,0,0,1-1-.41,2,2,0,0,1-.33-1.83c.62-3.08,4.93-7.22,7-8.35a1.5,1.5,0,0,0-1.46-2.63c-2.5,1.39-7.62,6.18-8.46,10.4a5,5,0,0,0,.92,4.28,4.15,4.15,0,0,0,3.25,1.54H301C306.1,114,314.22,106.88,316,105Z"/><path class="cls-7" d="M335.42,164.86a1.49,1.49,0,0,0-1.34,1.64,22.94,22.94,0,0,0,3.45,8.9v-7.07a12.34,12.34,0,0,1-.47-2.13A1.5,1.5,0,0,0,335.42,164.86Z"/><path class="cls-4" d="M330.57,99.61a1.5,1.5,0,0,0-.58,3,2.21,2.21,0,0,1,1.77,1.44,1.42,1.42,0,0,1-.6,1.48,6.84,6.84,0,0,1-2.15.43c-2,.2-5.68.57-5.37,4.42.12,1.55,1.37,2.49,2.46,3.32s1.55,1.24,1.45,1.61-1,.5-1.8.68c-1.88.4-4.72,1-5.38,4.48a1.49,1.49,0,0,0,1.19,1.76l.28,0a1.49,1.49,0,0,0,1.47-1.22c.27-1.38,1.1-1.69,3.06-2.11,1.49-.32,3.53-.75,4.08-2.85.63-2.37-1.28-3.81-2.54-4.77-.45-.34-1.21-.91-1.28-1.16-.05-.63-.07-.92,2.68-1.2a6.81,6.81,0,0,0,3.8-1.13,4.4,4.4,0,0,0,1.55-4.52A5.19,5.19,0,0,0,330.57,99.61Z"/><path class="cls-2" d="M223.06,41.48a9.5,9.5,0,1,1-9.5,9.5A9.52,9.52,0,0,1,223.06,41.48Zm0,3a6.5,6.5,0,1,0,6.5,6.5A6.51,6.51,0,0,0,223.06,44.48Z"/><path class="cls-2" d="M181.46,100.58a9.5,9.5,0,1,1-9.5,9.5A9.51,9.51,0,0,1,181.46,100.58Zm0,3a6.5,6.5,0,1,0,6.5,6.5A6.51,6.51,0,0,0,181.46,103.58Z"/><path class="cls-3" d="M165.41,0h0a6.17,6.17,0,1,1-6.17,6.17A6.18,6.18,0,0,1,165.41,0Zm0,3a3.17,3.17,0,1,0,3.17,3.17A3.17,3.17,0,0,0,165.41,3Z"/><path class="cls-6" d="M136.74,132.9a6.17,6.17,0,1,1,6.16,6.17A6.17,6.17,0,0,1,136.74,132.9Zm3,0a3.17,3.17,0,1,0,3.16-3.17A3.17,3.17,0,0,0,139.74,132.9Z"/><path class="cls-4" d="M178.7,88.38A2.29,2.29,0,1,0,181,90.67,2.29,2.29,0,0,0,178.7,88.38Z"/><path class="cls-4" d="M141.26,12.15a2.29,2.29,0,1,0,2.29,2.29A2.29,2.29,0,0,0,141.26,12.15Z"/><path class="cls-4" d="M161.49,188a2.29,2.29,0,1,0,2.29-2.29A2.28,2.28,0,0,0,161.49,188Z"/><path class="cls-2" d="M144.22,65a2.29,2.29,0,1,0,2.29,2.29A2.29,2.29,0,0,0,144.22,65Z"/><path class="cls-2" d="M183.75,203.31a2.29,2.29,0,1,0-2.29,2.29A2.28,2.28,0,0,0,183.75,203.31Z"/><path class="cls-5" d="M151.7,114.92a2.29,2.29,0,1,0,2.29,2.29A2.3,2.3,0,0,0,151.7,114.92Z"/><path class="cls-5" d="M132.25,227a2.29,2.29,0,1,0,2.29-2.29A2.29,2.29,0,0,0,132.25,227Z"/><path class="cls-2" d="M225.35,173.24a2.29,2.29,0,1,0-2.29-2.29A2.3,2.3,0,0,0,225.35,173.24Z"/><circle class="cls-3" cx="197.72" cy="168.66" r="2.29"/><path class="cls-6" d="M109.24,178.51a2.29,2.29,0,1,0,2.29-2.29A2.29,2.29,0,0,0,109.24,178.51Z"/><path class="cls-7" d="M183.75,268.68a2.29,2.29,0,1,0-4.58,0,2,2,0,0,0,.06.48h4.47A2.61,2.61,0,0,0,183.75,268.68Z"/><path class="cls-2" d="M158.48,47.65a6.17,6.17,0,1,1-6.17-6.17A6.18,6.18,0,0,1,158.48,47.65Zm-3,0a3.17,3.17,0,1,0-3.17,3.17A3.17,3.17,0,0,0,155.48,47.65Z"/><path class="cls-4" d="M145.53,225.63a6.17,6.17,0,1,1,6.17,6.16A6.18,6.18,0,0,1,145.53,225.63Zm3,0a3.17,3.17,0,1,0,3.17-3.17A3.17,3.17,0,0,0,148.53,225.63Z"/><path class="cls-4" d="M205.79,117.75v-26a1.5,1.5,0,1,0-3,0v26a1.5,1.5,0,0,0,3,0Z"/><path class="cls-4" d="M209.27,114.43l4,4.33a1.49,1.49,0,0,0,2.12.09,1.49,1.49,0,0,0,.08-2.12l-3.06-3.32,3.06-3.32a1.51,1.51,0,0,0,0-2l-3.06-3.31,3.06-3.32a1.49,1.49,0,0,0,0-2l-3.06-3.31,3.06-3.32a1.5,1.5,0,1,0-2.2-2l-4,4.33a1.49,1.49,0,0,0,0,2l3.06,3.32-3.06,3.31a1.49,1.49,0,0,0,0,2l3.06,3.32-3.06,3.32A1.51,1.51,0,0,0,209.27,114.43Z"/><path class="cls-5" d="M182.09,170.14a30.5,30.5,0,0,0-2.89,8c-.74,4.52,0,7.82,2.34,9.81a10,10,0,0,0,6.74,2.07,39.23,39.23,0,0,0,11-2.11,1.5,1.5,0,0,0-.9-2.87c-7.61,2.39-12.62,2.61-14.88.65-1.46-1.27-1.91-3.64-1.35-7.06a28.4,28.4,0,0,1,2.64-7.19c1.43-3,2.91-6.17,3.08-9.72.2-4-.71-6.77-2.77-8.36-3.32-2.56-8.68-1.16-13.45.35a1.5,1.5,0,1,0,.91,2.86c4.34-1.38,8.64-2.43,10.71-.83,1.21.93,1.75,2.89,1.61,5.84S183.45,167.24,182.09,170.14Z"/><path class="cls-5" d="M118.35,98.11a1.5,1.5,0,1,0,2.83-1s0,0,0,0a15,15,0,0,1,3.43.32,11,11,0,0,0,1.81.21c3.26-.15,3.95-2.15,4.41-3.48.32-.93.5-1.39,1.2-1.69a3,3,0,0,1,2.24,0c1.45.38,3.43.91,5.68-1.78a5.62,5.62,0,0,0,1-2c.29-.85.39-1,.81-1.2s1,0,1.85.34a6.3,6.3,0,0,0,4.3.45,1.5,1.5,0,0,0-.85-2.88,3.61,3.61,0,0,1-2.38-.37,5.34,5.34,0,0,0-4-.35,4.27,4.27,0,0,0-2.61,3.06,3.32,3.32,0,0,1-.46,1c-1,1.23-1.43,1.12-2.61.81a5.87,5.87,0,0,0-4.22.12A5.16,5.16,0,0,0,128,93.13c-.39,1.13-.48,1.4-1.69,1.45-.17,0-.75-.1-1.18-.17-2.26-.39-5.08-.87-6.41.71A2.89,2.89,0,0,0,118.35,98.11Z"/><path class="cls-6" d="M195.43,47.33l.24,0a11.94,11.94,0,0,0,4.2-1.53,1.5,1.5,0,1,0-1.54-2.57,9,9,0,0,1-3.14,1.14,1.5,1.5,0,0,0,.24,3Z"/><path class="cls-6" d="M194.72,35.73a1.5,1.5,0,0,0-2.12.12,17.21,17.21,0,0,1-3.35,3.07,1.5,1.5,0,0,0,.81,2.76,1.48,1.48,0,0,0,.8-.23,20.14,20.14,0,0,0,4-3.6A1.5,1.5,0,0,0,194.72,35.73Z"/><path class="cls-6" d="M170.92,23c-1.32.94-2.8,1.89-4.24,2.81-1.08.7-2.18,1.4-3.24,2.13a65.25,65.25,0,0,1-3-7.15,1.5,1.5,0,0,0-2.89.81,85.68,85.68,0,0,0,3.92,9.24,1.5,1.5,0,0,0,2.24.56c1.4-1,3-2.06,4.56-3.06s3-1.91,4.37-2.91A1.5,1.5,0,0,0,170.92,23Z"/><path class="cls-7" d="M171.26,175.53a1.49,1.49,0,0,0,.08-2.12c-1.82-2-6.94-3.23-11.38-1.9-4.76,1.43-6,6.26-6.49,8.08a1.51,1.51,0,0,0,1.08,1.83,1.24,1.24,0,0,0,.38.05,1.51,1.51,0,0,0,1.45-1.12c.64-2.48,1.67-5.13,4.44-6,3.56-1.07,7.41.08,8.32,1.06A1.5,1.5,0,0,0,171.26,175.53Z"/><path class="cls-4" d="M158.71,140.68l5.62-16.47.06-.15a1.62,1.62,0,0,1,1.49-.92c1.12,0,2.64,1,9.61,6.5,2.21,1.74,4.3,3.38,5.33,4.06a1.5,1.5,0,0,1,.67,1.44,1.51,1.51,0,0,1-1,1.23c-7,2.35-18.88,6.3-20.29,6.3a2,2,0,0,1-.55-.09A1.49,1.49,0,0,1,158.71,140.68Zm3.72-1.62c3.11-.91,8.76-2.74,14.35-4.61-.93-.71-2-1.55-3.15-2.45-2.2-1.73-5.28-4.16-7-5.29Z"/><path class="cls-2" d="M230.81,221.3l-14.53,3.88-.16,0-.24,0h0a1.67,1.67,0,0,1-1.17-.52c-.71-.76-.81-1.74-.16-10.36.19-2.42.36-4.7.35-5.77a1.47,1.47,0,0,1,.83-1.35,1.48,1.48,0,0,1,1.58.15c14.26,11,14.41,11.5,14.56,12.08A1.51,1.51,0,0,1,230.81,221.3Zm-3.43-2.19c-2.16-1.77-5.87-4.7-9.61-7.59-.06.92-.14,2-.22,3.06-.17,2.16-.41,5.43-.44,7.27Z"/><path class="cls-3" d="M136.37,115.33l-9.63,6.79-.14.08a1.57,1.57,0,0,1-.76.2h0c-1.48,0-1.8-.9-3.8-8-.52-1.82-1-3.54-1.3-4.31a1.5,1.5,0,0,1,1.85-2c13.55,4.22,13.78,4.56,14.14,5.07A1.5,1.5,0,0,1,136.37,115.33Zm-4-.84c-2-.67-4.9-1.63-7.92-2.59.15.54.32,1.12.49,1.73.42,1.48,1,3.65,1.51,5Z"/><path class="cls-4" d="M169.81,43c2.14-.71,4.56-.58,5.08-.24A1.5,1.5,0,0,0,177,40.62c-1.56-1.54-5.3-1.15-7.07-.74-2.54.61-4.22,1.79-4.75,3.33a2.63,2.63,0,0,0,.16,2.13c.84,1.53,3,2.06,5.7,2.72,2.21.54,5.54,1.35,5.72,2.65.12.85-1.47,2-2.88,3-2,1.42-4.32,3-4.42,5.57-.08,1.8,1,3.62,3.33,5.54a1.5,1.5,0,0,0,1.92-2.31c-1.49-1.23-2.29-2.34-2.26-3.11.05-1,1.7-2.21,3.15-3.24,2.11-1.48,4.51-3.16,4.13-5.82-.46-3.32-4.45-4.29-8-5.16A17,17,0,0,1,168.09,44,3.69,3.69,0,0,1,169.81,43Z"/><path class="cls-5" d="M182.82,73.4a1.51,1.51,0,0,0,.57,2c3.79,2.14,8.4,1.82,12.85,1.51a33.63,33.63,0,0,1,8,.06,29.28,29.28,0,0,1-4.91,4A30.94,30.94,0,0,0,194,85.51a1.5,1.5,0,1,0,2.25,2,29,29,0,0,1,4.88-4c2.68-1.9,5.46-3.87,6.94-6.63a1.49,1.49,0,0,0-.79-2.11c-3.44-1.31-7.4-1-11.24-.77-3.38.24-6.62.46-9.32-.35A41.5,41.5,0,0,1,194,70.1c5.87-2.44,11.94-5,12.18-9.54A1.5,1.5,0,0,0,204.8,59c-1.36-.15-2.77-.38-4.13-.59a55,55,0,0,0-8.29-.89h0a1.5,1.5,0,0,0,0,3,53.37,53.37,0,0,1,7.85.85c.79.13,1.61.26,2.43.37-1.51,2.14-6,4-9.83,5.6C188.22,69.23,184.26,70.88,182.82,73.4Z"/><path class="cls-6" d="M129.38,66.82A1.5,1.5,0,0,0,127,65a30.5,30.5,0,0,0-3.65,6.46,38.75,38.75,0,0,1-2.12,4.17,1.5,1.5,0,0,0,.5,2.06l.95.6c1.94,1.23,4.34,2.76,6.29,2.86h.08a1.5,1.5,0,0,0,.07-3c-1.1-.06-3.14-1.33-4.6-2.25.57-1.06,1.07-2.14,1.55-3.2A27.8,27.8,0,0,1,129.38,66.82Z"/><path class="cls-2" d="M128.5,10.7a30.15,30.15,0,0,0-6.83,2.91,39.5,39.5,0,0,1-4.21,2,1.5,1.5,0,0,0-.86,1.94l.4,1.06c.78,2.15,1.77,4.83,3.25,6.09a1.49,1.49,0,0,0,1,.35,1.5,1.5,0,0,0,1-2.64c-.84-.71-1.69-3-2.28-4.58,1.09-.5,2.14-1.06,3.17-1.6a27.41,27.41,0,0,1,6.15-2.65,1.5,1.5,0,1,0-.73-2.91Z"/><path class="cls-3" d="M143.84,189.57a10.94,10.94,0,0,1-2.33-3.93,1.49,1.49,0,0,0-2.6-.57,4.13,4.13,0,0,1-2.47,1.21,2.5,2.5,0,0,1-1.94-.69c-.26-.23-.15-1.33-.08-2,.14-1.32.37-3.53-1.64-4.28-2.25-.84-5.1,2.57-5.13,2.6a1.5,1.5,0,1,0,2.34,1.87,9.76,9.76,0,0,1,1.52-1.33c0,.27,0,.58-.07.83-.15,1.39-.35,3.3,1.07,4.55a5.54,5.54,0,0,0,4.16,1.43,7,7,0,0,0,2.76-.86,11.52,11.52,0,0,0,2.54,3.51,1.46,1.46,0,0,0,.93.32,1.5,1.5,0,0,0,.94-2.67Z"/><path class="cls-7" d="M204.64,156.42a1.53,1.53,0,0,0,1.51-1.49,4.6,4.6,0,0,1,1.63-2.86c.33-.21.48-.15.51-.15a5.4,5.4,0,0,1,.41,1.71c.23,1.5.64,4.26,3.41,4.26h.14c2.15-.07,2.9-2.16,3.45-3.69a7.57,7.57,0,0,1,.72-1.64l.17-.06a9.19,9.19,0,0,1,.31,1.43,7.71,7.71,0,0,0,.66,2.37,1.5,1.5,0,1,0,2.63-1.45,6.66,6.66,0,0,1-.33-1.42c-.21-1.3-.48-2.91-1.81-3.64a3.08,3.08,0,0,0-2.78,0c-1.37.58-1.91,2.07-2.39,3.39a8.39,8.39,0,0,1-.73,1.71h-.08a6.45,6.45,0,0,1-.4-1.7c-.22-1.46-.48-3.27-2.14-4a3.47,3.47,0,0,0-3.38.35,7.33,7.33,0,0,0-3,5.35A1.5,1.5,0,0,0,204.64,156.42Z"/><path class="cls-5" d="M199.8,204.38c1.25.73,3.34,1.93,5.15.29a2.79,2.79,0,0,0,.69-3.35,6.78,6.78,0,0,0-1.27-1.8,2.3,2.3,0,0,1-.17-.2,1.5,1.5,0,0,0-2.33,1.9l.28.32a5,5,0,0,1,.73,1c-.27.06-1.15-.46-1.58-.71a5.45,5.45,0,0,0-2.68-1c-.94,0-3.42.07-4.05,1.87s.93,3.21,2.56,4.61c-.29-.07-.61-.18-1-.31a6.18,6.18,0,0,0-3.77-.39,3.46,3.46,0,0,0-2.85,3.2,5.5,5.5,0,0,0,3.49,4.89,1.66,1.66,0,0,0,.53.1,1.49,1.49,0,0,0,1.4-1,1.5,1.5,0,0,0-.86-1.94,2.58,2.58,0,0,1-1.56-1.94c0-.18.23-.33.65-.45a3.4,3.4,0,0,1,2,.34c1.49.52,3.53,1.22,5.93-.63a1.51,1.51,0,0,0,.32-2,8.56,8.56,0,0,0-1.63-1.55,25.73,25.73,0,0,1-1.93-1.75,7.33,7.33,0,0,1,.8-.06A6.3,6.3,0,0,1,199.8,204.38Z"/><path class="cls-4" d="M128.63,164.29c-1.64,2.1-4.7,6-1.3,9.34a6.76,6.76,0,0,0,4.58,1.51,8.33,8.33,0,0,0,1.93-.21,4.3,4.3,0,0,0,3.3-2.66,1.5,1.5,0,0,0-2.85-.94c-.09.26-.54.53-1.16.68a4.77,4.77,0,0,1-3.7-.53c-1.27-1.24-.54-2.65,1.57-5.35.32-.41.62-.8.88-1.16,1.67-2.36,3.1-4.83,2.32-6.94a3.82,3.82,0,0,0-2.93-2.31c-2.13-.52-4.24.27-6.28,1.05s-4.08,1.55-5.69.68q-1.12-.62-1.26-1.26c-.23-1.17,1.51-3.3,2.9-5,2.17-2.67,4.64-5.71,3.18-8.59a1.5,1.5,0,1,0-2.68,1.35c.58,1.15-1.23,3.38-2.83,5.35-2,2.43-4,4.94-3.51,7.49a5,5,0,0,0,2.77,3.32c2.82,1.52,5.67.44,8.18-.52,1.69-.64,3.28-1.24,4.51-.94.45.12.76.28.83.45.12.34,0,1.33-2,4.16C129.2,163.56,128.92,163.92,128.63,164.29Z"/><path class="cls-6" d="M196,249c2.07-1.55,4.22-3.15,5-5.34s.54-3.69-.69-4.46c-3-1.91-9.39,3.88-9.45,3.94-.24.24-.57.6-1,1-5.19,5.58-6.93,6.17-7.5,6,0,0-.19-.18-.31-.63-.65-2.33,3.52-6.91,5.38-8.14a1.5,1.5,0,0,0-1.65-2.5c-1.83,1.2-7.88,6.89-6.63,11.43a3.5,3.5,0,0,0,2.5,2.76c3,.72,6.78-3,10.41-6.92.37-.4.68-.73.91-1a16.8,16.8,0,0,1,5.4-3.39,6,6,0,0,1-.22.79c-.47,1.33-2.25,2.65-4,3.93-2.72,2-5.8,4.33-5.2,7.85a1.5,1.5,0,0,0,1.48,1.25l.23,0A25.82,25.82,0,0,0,198,253l.41-.2a1.5,1.5,0,1,0-1.31-2.7l-.41.2a37.19,37.19,0,0,1-4.16,1.81A16.08,16.08,0,0,1,196,249Z"/><path class="cls-5" d="M127.93,211.39a1.5,1.5,0,0,0,.19,3h.2c2.16-.29,10.09-2.75,11-7.38a3.47,3.47,0,0,0-1-3.57c-2.37-2-7.42-.26-12.39,1.66l-1.23.46a17,17,0,0,1-6.35.69,5,5,0,0,1,.55-.61c1-1,3.18-1.41,5.28-1.81,3.33-.63,7.11-1.34,8.11-4.77a1.51,1.51,0,0,0-1-1.86,25.74,25.74,0,0,0-7.63-.8h-.46a1.5,1.5,0,0,0,0,3h.46a37.23,37.23,0,0,1,4.53.2,16.71,16.71,0,0,1-4.57,1.29c-2.54.48-5.17,1-6.83,2.61s-2.1,3.08-1.34,4.31c1.89,3,10.14.62,10.23.59.32-.11.78-.29,1.33-.5,7.11-2.75,8.94-2.53,9.39-2.15,0,0,.09.24,0,.71C135.88,208.82,130.14,211.1,127.93,211.39Z"/><path class="cls-2" d="M175.06,226.23h.23a1.5,1.5,0,0,0,.22-3c-1.51-.23-1.71-1-1.58-3.4.06-1.28.15-2.87-1.31-3.44-1.06-.42-2.38-.06-3.92.36-1.17.33-3.08.85-3.58.43.15-1.4,2.22-4.19,3.75-6.27,3-4.09,5.9-8,3.38-10.5-2.11-2.13-6.87-.15-10.49,1.89-3,1.68-7.95,4.89-7.32,7.41a1.5,1.5,0,0,0,2.95-.38c.67-1.2,5.51-4.77,9.89-6.31a7.67,7.67,0,0,1,2.44-.54,1,1,0,0,1,.4.05c.7.7-2.35,4.83-3.66,6.59-2.35,3.18-4.58,6.19-4.33,8.63a1.47,1.47,0,0,0,.1.4c1.24,3.15,5,2.12,7.27,1.5.44-.12,1-.28,1.45-.38,0,.14,0,.28,0,.41C170.84,221.46,170.63,225.55,175.06,226.23Z"/><path class="cls-2" d="M148.81,156.07a4.86,4.86,0,0,1,2,1.85,7,7,0,0,0,3.27,2.73,4.78,4.78,0,0,0,2.49,0,3.71,3.71,0,0,1,1.11-.12,10.7,10.7,0,0,1,2,1.64c.31.3.6.56.82.75a1.46,1.46,0,0,0,1,.35,1.49,1.49,0,0,0,1.15-.53,1.51,1.51,0,0,0-.18-2.12c-.19-.15-.43-.38-.69-.63a9.74,9.74,0,0,0-3.18-2.33,5.36,5.36,0,0,0-2.56,0,5.51,5.51,0,0,1-.94.13,4.36,4.36,0,0,1-1.88-1.73,7.7,7.7,0,0,0-3.3-2.82,11.23,11.23,0,0,0-3-.68,5,5,0,0,1-2.79-.94c-.43-.34-.81-.7-1.18-1-1.34-1.26-3-2.83-6.26-1.45a1.5,1.5,0,1,0,1.17,2.76c1.46-.61,1.79-.3,3,.87a17,17,0,0,0,1.41,1.23,7.83,7.83,0,0,0,4.25,1.55A8.22,8.22,0,0,1,148.81,156.07Z"/><path class="cls-2" d="M229.88,144.3A1.51,1.51,0,0,0,232,144a1.5,1.5,0,0,0-.32-2.1c-.2-.15-.45-.36-.73-.59a9.35,9.35,0,0,0-3.32-2.11,5.28,5.28,0,0,0-2.56.19,4.68,4.68,0,0,1-.92.19,4.29,4.29,0,0,1-2-1.6,7.78,7.78,0,0,0-3.47-2.6,11,11,0,0,0-3-.49,4.94,4.94,0,0,1-2.85-.76,15.68,15.68,0,0,1-1.24-1c-1.42-1.17-3.17-2.62-6.34-1a1.5,1.5,0,1,0,1.34,2.68c1.42-.7,1.77-.41,3.08.67a15.56,15.56,0,0,0,1.49,1.14,7.77,7.77,0,0,0,4.34,1.28,8.19,8.19,0,0,1,2.25.34,4.87,4.87,0,0,1,2.13,1.72,7,7,0,0,0,3.44,2.52,4.81,4.81,0,0,0,2.48-.17,4.14,4.14,0,0,1,1.11-.19A10.61,10.61,0,0,1,229,143.6Z"/><path class="cls-2" d="M217.7,184c1.75-.27,3.72-.58,5-2a1.49,1.49,0,0,0,.05-2c-2.05-2.45-6.33-3.18-9.64-3-1.86.08-6.41.58-8.47,3.49a1.5,1.5,0,0,0,2.46,1.73c.86-1.23,3.27-2.1,6.13-2.22a13.58,13.58,0,0,1,5.44.8c-.45.1-.95.18-1.46.25-2.1.33-4.72.74-6,3.16a3.72,3.72,0,0,0-.42,3.41,4.17,4.17,0,0,0,3,2,1.5,1.5,0,0,0,2.46,1.42,8.24,8.24,0,0,0,1.28-1.54,1.53,1.53,0,0,0,.17-1.39,1.51,1.51,0,0,0-1.06-.92l-.91-.2a8.48,8.48,0,0,1-2.16-.64,2.45,2.45,0,0,1,.29-.73C214.4,184.62,215.67,184.36,217.7,184Z"/><path class="cls-5" d="M124.79,34.64a1.5,1.5,0,1,0,2,2.21c1.11-1,3.65-1.36,6.47-.87a13.68,13.68,0,0,1,5.15,1.93c-.47,0-1,0-1.48-.06-2.13-.12-4.77-.28-6.58,1.8a3.73,3.73,0,0,0-1.12,3.25,4.15,4.15,0,0,0,2.46,2.61,1.5,1.5,0,0,0,2.11,1.91,8.22,8.22,0,0,0,1.58-1.23,1.5,1.5,0,0,0,.45-1.33,1.53,1.53,0,0,0-.84-1.12l-.84-.39a8.14,8.14,0,0,1-2-1.08,2,2,0,0,1,.43-.65c.79-.9,2.09-.89,4.14-.77,1.76.1,3.75.22,5.34-.89a1.5,1.5,0,0,0,.47-1.93c-1.49-2.83-5.52-4.44-8.78-5C132,32.71,127.42,32.23,124.79,34.64Z"/><path class="cls-3" d="M165.75,103.5a1.5,1.5,0,0,0-.34-3c-2.78.32-8.08-.63-10.37-3.2a4,4,0,0,1-.92-3.85,1.5,1.5,0,1,0-2.92-.68,7,7,0,0,0,1.6,6.53c2.73,3.06,8,4.26,11.52,4.26A12.43,12.43,0,0,0,165.75,103.5Z"/><path class="cls-6" d="M163.54,78c1.21-.82,3.75-2.53,1.94-5.43-1.67-2.66-6.91-2.64-8.61-2.42a1.5,1.5,0,1,0,.38,3c2-.26,5.17.21,5.68,1a1.41,1.41,0,0,1,.17.34,5,5,0,0,1-1.24,1c-1.22.82-3.05,2.06-2.9,4.35a3.36,3.36,0,0,0,1.11,2.42c1.15,1,2.68.79,4,.64a5,5,0,0,1,2,0,2.26,2.26,0,0,1,.47.34,4.48,4.48,0,0,1-.29.58,4.91,4.91,0,0,0-.47,4.46,1.51,1.51,0,0,0,1.38.92,1.47,1.47,0,0,0,.58-.12,1.5,1.5,0,0,0,.81-2c-.26-.62-.11-1,.36-1.89.54-1,1.67-3.17-1.34-4.92a6.23,6.23,0,0,0-3.83-.4A6.88,6.88,0,0,1,162,80a.8.8,0,0,1-.07-.35C161.92,79.14,162.39,78.74,163.54,78Z"/><path class="cls-3" d="M144.24,245.07a1.49,1.49,0,0,0-1.34-2,38.52,38.52,0,0,0-6.21.31,35.33,35.33,0,0,1-5.76.3,1.5,1.5,0,1,0-.16,3,35.37,35.37,0,0,0,5.76-.27c-2.57.81-5.23,1.86-6.09,4.59a1.46,1.46,0,0,0,.13,1.19,1.5,1.5,0,0,0,1,.72,22.36,22.36,0,0,0,3,.33c1.38.09,5.53.39,6.16,1.29a5.83,5.83,0,0,1-.71.6,5.18,5.18,0,0,0-2.25,3.13,1.5,1.5,0,0,0,1.22,1.73,1.14,1.14,0,0,0,.26,0,1.49,1.49,0,0,0,1.47-1.24c.08-.43.6-.84,1.15-1.27.93-.73,2.66-2.09,1.56-4.32s-5-2.68-8.46-2.92a19.17,19.17,0,0,1,3.32-1.23C140.8,248.29,143.46,247.49,144.24,245.07Z"/><path class="cls-3" d="M218.33,235.69a1.5,1.5,0,0,0-2.12,0c-3.6,3.5-2.4,7.37-1.43,10.47s1.41,4.91-.27,6.76a7.5,7.5,0,0,1-3.34,1.86,9.54,9.54,0,0,0-4.59,2.82,10.33,10.33,0,0,0-1.63,7.56,3.57,3.57,0,0,0,1.92,2.61,1.6,1.6,0,0,0,.63.14,1.5,1.5,0,0,0,.63-2.86s-.16-.15-.26-.57a7.44,7.44,0,0,1,1-5,6.9,6.9,0,0,1,3.28-1.89,10.34,10.34,0,0,0,4.54-2.66c2.92-3.22,1.81-6.8.91-9.67-1-3.23-1.51-5.32.66-7.44A1.5,1.5,0,0,0,218.33,235.69Z"/><path class="cls-2" d="M183.75,234a1.1,1.1,0,0,0,.31,0,1.49,1.49,0,0,0,1.46-1.2c.56-2.69,4-5.13,7.6-5.32,1.51-.09,4.22.21,5.18,3.15a1.5,1.5,0,0,0,1.89,1,1.51,1.51,0,0,0,1-1.89c-1.14-3.49-4.2-5.44-8.2-5.22-4.35.24-9.42,3.19-10.36,7.71A1.49,1.49,0,0,0,183.75,234Z"/><path class="cls-3" d="M190,141.24a1.51,1.51,0,0,0,1.18.58,21.71,21.71,0,0,1,5.17.64,1.2,1.2,0,0,0,.38,0,1.5,1.5,0,0,0,.38-2.95,24.09,24.09,0,0,0-4.09-.67c.48-2.64.83-6.59-.65-9.13a1.5,1.5,0,1,0-2.59,1.51c.89,1.53.87,4.94,0,8.69A1.5,1.5,0,0,0,190,141.24Z"/><path class="cls-5" d="M194,10.64A1.5,1.5,0,1,0,192.56,8c-2.5,1.39-7.62,6.18-8.46,10.39a5.09,5.09,0,0,0,.92,4.29,4.15,4.15,0,0,0,3.25,1.54h.17c5.15,0,13.27-7.08,15-9a1.5,1.5,0,0,0-2.23-2c-1.88,2.09-9.15,8-12.76,8h-.1a1.15,1.15,0,0,1-1-.41A2,2,0,0,1,187,19C187.66,15.91,192,11.77,194,10.64Z"/><path class="cls-7" d="M231.29,86.61a2,2,0,0,1-1.81-.43c-2.6-1.78-4.7-7.37-4.93-9.7a1.5,1.5,0,1,0-3,.3c.28,2.85,2.67,9.44,6.21,11.88a5.37,5.37,0,0,0,3.05,1,4.53,4.53,0,0,0,1.25-.17,4.18,4.18,0,0,0,2.7-2.38c2.17-4.65-1.19-15.11-2.28-17.5a1.5,1.5,0,0,0-2.73,1.25c1.18,2.58,3.81,11.74,2.29,15C231.8,86.41,231.51,86.55,231.29,86.61Z"/><path class="cls-4" d="M213.24,26.22c-1.88.4-4.72,1-5.38,4.48a1.49,1.49,0,0,0,1.19,1.76,1.32,1.32,0,0,0,.28,0,1.49,1.49,0,0,0,1.47-1.22c.27-1.38,1.1-1.69,3.06-2.11,1.49-.32,3.53-.75,4.08-2.85.63-2.37-1.28-3.81-2.54-4.77-.45-.34-1.21-.91-1.28-1.16-.05-.63-.07-.92,2.68-1.2A6.81,6.81,0,0,0,220.6,18a4.4,4.4,0,0,0,1.55-4.52,5.19,5.19,0,0,0-4.09-3.63,1.5,1.5,0,0,0-.58,2.95,2.19,2.19,0,0,1,1.77,1.44,1.42,1.42,0,0,1-.6,1.48,6.84,6.84,0,0,1-2.15.43c-2,.2-5.67.57-5.37,4.42.12,1.55,1.37,2.49,2.46,3.32s1.55,1.24,1.45,1.61S214,26,213.24,26.22Z"/><path class="cls-2" d="M151.34,259.57a1.49,1.49,0,0,1,0-1.39c.47-1,1-1.92,1.45-2.88a55.62,55.62,0,0,0,4.77-11.42,1.47,1.47,0,0,1,.75-1,1.51,1.51,0,0,1,1.23-.08c3.79,1.42,8.81,9.71,9.57,13a1.51,1.51,0,0,1-1.26,1.82,50.11,50.11,0,0,0-5.26,1.16,37.31,37.31,0,0,1-8.79,1.55h0q-.64,0-1.26-.06A1.49,1.49,0,0,1,151.34,259.57Zm3.74-2.25a46,46,0,0,0,6.73-1.38c1.32-.34,2.59-.67,3.81-.92a28.72,28.72,0,0,0-5.76-8.41,67.76,67.76,0,0,1-4.44,10.05C155.31,256.88,155.2,257.1,155.08,257.32Z"/><path class="cls-2" d="M78.45,20.36a9.5,9.5,0,1,1-9.5-9.5A9.51,9.51,0,0,1,78.45,20.36Zm-3,0a6.5,6.5,0,1,0-6.5,6.5A6.51,6.51,0,0,0,75.45,20.36Z"/><path class="cls-6" d="M36.56,43.18A6.17,6.17,0,1,1,30.39,37,6.18,6.18,0,0,1,36.56,43.18Zm-3,0a3.17,3.17,0,1,0-3.17,3.17A3.18,3.18,0,0,0,33.56,43.18Z"/><path class="cls-4" d="M63.9,1a2.29,2.29,0,0,0,4.58,0A2.32,2.32,0,0,0,68.27,0H64.11A2.32,2.32,0,0,0,63.9,1Z"/><path class="cls-4" d="M49,98.28A2.29,2.29,0,1,0,51.27,96,2.28,2.28,0,0,0,49,98.28Z"/><path class="cls-2" d="M69,111.3a2.29,2.29,0,1,0,2.29,2.29A2.29,2.29,0,0,0,69,111.3Z"/><path class="cls-5" d="M36.9,27.49a2.29,2.29,0,1,0,2.29-2.29A2.29,2.29,0,0,0,36.9,27.49Z"/><path class="cls-5" d="M22,139.59a2.29,2.29,0,1,0-2.28-2.29A2.28,2.28,0,0,0,22,139.59Z"/><path class="cls-2" d="M112.84,83.52a2.29,2.29,0,1,0-2.29-2.29A2.3,2.3,0,0,0,112.84,83.52Z"/><path class="cls-3" d="M85.21,76.65a2.29,2.29,0,1,0,2.29,2.29A2.29,2.29,0,0,0,85.21,76.65Z"/><path class="cls-6" d="M0,86.73v4.12a2.29,2.29,0,0,0,1.31-2.06A2.28,2.28,0,0,0,0,86.73Z"/><path class="cls-7" d="M69,181.25A2.29,2.29,0,1,0,66.66,179,2.29,2.29,0,0,0,69,181.25Z"/><path class="cls-4" d="M39.19,129.74A6.17,6.17,0,1,1,33,135.91,6.18,6.18,0,0,1,39.19,129.74Zm0,3a3.17,3.17,0,1,0,3.17,3.17A3.18,3.18,0,0,0,39.19,132.74Z"/><path class="cls-4" d="M91.78.53A1.5,1.5,0,0,0,90.28,2V28a1.5,1.5,0,0,0,3,0V2A1.5,1.5,0,0,0,91.78.53Z"/><path class="cls-4" d="M102.88.92a1.5,1.5,0,0,0-2.12.09l-4,4.33a1.49,1.49,0,0,0,0,2l3.06,3.32L96.76,14a1.49,1.49,0,0,0,0,2l3.06,3.32-3.06,3.32a1.51,1.51,0,0,0,0,2l4,4.33a1.49,1.49,0,0,0,2.12.09A1.49,1.49,0,0,0,103,27L99.9,23.69,103,20.37a1.51,1.51,0,0,0,0-2L99.9,15,103,11.7a1.49,1.49,0,0,0,0-2L99.9,6.36,103,3A1.49,1.49,0,0,0,102.88.92Z"/><path class="cls-5" d="M85.88,95.29c-7.62,2.39-12.62,2.61-14.88.65-1.46-1.27-1.91-3.64-1.34-7.06a28,28,0,0,1,2.63-7.19c1.43-3,2.91-6.17,3.08-9.72.2-4-.71-6.77-2.77-8.36-3.32-2.56-8.68-1.16-13.45.35a1.5,1.5,0,0,0,.91,2.86c4.34-1.38,8.64-2.43,10.71-.83,1.21.93,1.75,2.89,1.61,5.84s-1.44,5.69-2.8,8.59a30.12,30.12,0,0,0-2.88,8c-.75,4.52,0,7.82,2.33,9.81a10,10,0,0,0,6.75,2.07,39.22,39.22,0,0,0,11-2.11,1.5,1.5,0,0,0-.9-2.87Z"/><path class="cls-5" d="M7.25,9.39a1.52,1.52,0,0,0,.51-.09,1.5,1.5,0,0,0,.91-1.92l0,0a15,15,0,0,1,3.43.32,10.07,10.07,0,0,0,1.81.21c3.27-.15,3.95-2.15,4.41-3.47.32-.94.5-1.4,1.2-1.7a3,3,0,0,1,2.24,0c1.45.38,3.43.9,5.68-1.78A4.86,4.86,0,0,0,28,0H23.8a1.34,1.34,0,0,1-.49,0H18.18a5.2,5.2,0,0,0-2.72,3.41c-.39,1.13-.48,1.4-1.69,1.45-.17,0-.75-.1-1.18-.17-2.26-.39-5.08-.87-6.41.71a2.89,2.89,0,0,0-.34,3A1.5,1.5,0,0,0,7.25,9.39Z"/><path class="cls-7" d="M58.75,85.81a1.49,1.49,0,0,0,.08-2.12c-1.82-2-6.94-3.23-11.38-1.9-4.76,1.43-6,6.26-6.49,8.08A1.51,1.51,0,0,0,42,91.7a1.24,1.24,0,0,0,.38,0,1.51,1.51,0,0,0,1.45-1.12c.64-2.48,1.67-5.13,4.44-6,3.57-1.07,7.41.08,8.32,1.06A1.5,1.5,0,0,0,58.75,85.81Z"/><path class="cls-4" d="M53.37,33.42c1.12,0,2.64,1,9.6,6.5,2.21,1.74,4.31,3.38,5.34,4.06A1.49,1.49,0,0,1,68,46.65C61,49,49.09,53,47.68,53a2,2,0,0,1-.55-.09A1.5,1.5,0,0,1,46.2,51l5.62-16.46a1,1,0,0,1,.07-.15A1.6,1.6,0,0,1,53.37,33.42ZM54.14,37,49.92,49.34c3.11-.91,8.76-2.74,14.35-4.61-.93-.71-2-1.55-3.15-2.46C58.92,40.54,55.84,38.12,54.14,37Z"/><path class="cls-2" d="M118.3,131.58l-14.53,3.88-.16,0-.24,0h0a1.67,1.67,0,0,1-1.17-.52c-.71-.77-.81-1.74-.16-10.36.19-2.42.36-4.7.35-5.77a1.47,1.47,0,0,1,.83-1.35,1.48,1.48,0,0,1,1.58.15c14.26,11,14.41,11.5,14.56,12.08A1.51,1.51,0,0,1,118.3,131.58Zm-3.43-2.19c-2.16-1.77-5.87-4.7-9.61-7.59-.06.92-.14,2-.22,3.06-.17,2.16-.41,5.43-.44,7.27Z"/><path class="cls-3" d="M24.22,23.53a1.5,1.5,0,0,1-.36,2.08L14.23,32.4l-.14.08a1.57,1.57,0,0,1-.76.2h0c-1.48,0-1.8-.9-3.8-7.95-.52-1.82-1-3.54-1.3-4.31a1.47,1.47,0,0,1,.31-1.56,1.5,1.5,0,0,1,1.54-.4C23.63,22.68,23.86,23,24.22,23.53Zm-4.37,1.24c-2-.67-4.9-1.63-7.93-2.59.15.54.32,1.12.49,1.73.42,1.47,1,3.65,1.51,5Z"/><path class="cls-3" d="M31.33,99.85A10.94,10.94,0,0,1,29,95.92a1.49,1.49,0,0,0-2.6-.57,4.13,4.13,0,0,1-2.47,1.21A2.5,2.5,0,0,1,22,95.87c-.26-.23-.15-1.33-.08-2,.14-1.32.37-3.53-1.64-4.28-2.25-.84-5.1,2.57-5.13,2.6a1.5,1.5,0,1,0,2.34,1.87A9.76,9.76,0,0,1,19,92.74c0,.27-.05.58-.07.83-.15,1.39-.35,3.3,1.07,4.55a5.56,5.56,0,0,0,4.17,1.43,7,7,0,0,0,2.75-.86,11.52,11.52,0,0,0,2.54,3.51,1.46,1.46,0,0,0,.93.32,1.5,1.5,0,0,0,.94-2.67Z"/><path class="cls-7" d="M93.64,65.21a4.57,4.57,0,0,1,1.64-2.86c.32-.21.47-.15.5-.15a5.4,5.4,0,0,1,.41,1.71c.23,1.5.64,4.26,3.41,4.26h.14c2.15-.07,2.9-2.16,3.46-3.69a7.16,7.16,0,0,1,.71-1.64l.17-.06a9.19,9.19,0,0,1,.31,1.43,7.71,7.71,0,0,0,.66,2.37,1.5,1.5,0,1,0,2.63-1.45,6.66,6.66,0,0,1-.33-1.42c-.21-1.29-.48-2.91-1.8-3.64a3.1,3.1,0,0,0-2.79,0c-1.37.57-1.91,2.07-2.39,3.39a8.39,8.39,0,0,1-.73,1.71h-.08a6.45,6.45,0,0,1-.4-1.7C99,62,98.68,60.2,97,59.49a3.47,3.47,0,0,0-3.38.35,7.36,7.36,0,0,0-3,5.35,1.5,1.5,0,0,0,1.49,1.51h0A1.49,1.49,0,0,0,93.64,65.21Z"/><path class="cls-5" d="M86.11,111.1c-.94,0-3.42.07-4,1.87s.93,3.21,2.56,4.61c-.29-.07-.61-.18-1-.31a6.18,6.18,0,0,0-3.77-.39,3.44,3.44,0,0,0-2.84,3.2A5.48,5.48,0,0,0,80.51,125a1.66,1.66,0,0,0,.53.1,1.5,1.5,0,0,0,.54-2.91A2.58,2.58,0,0,1,80,120.22c0-.18.23-.33.65-.45a3.4,3.4,0,0,1,2,.34c1.5.52,3.54,1.22,5.93-.63a1.51,1.51,0,0,0,.32-2,8.56,8.56,0,0,0-1.63-1.55,25.73,25.73,0,0,1-1.93-1.75,7.33,7.33,0,0,1,.8-.06,6,6,0,0,1,1.15.57c1.25.73,3.34,1.94,5.16.29a2.82,2.82,0,0,0,.68-3.36,6.88,6.88,0,0,0-1.27-1.79l-.18-.2a1.5,1.5,0,0,0-2.32,1.9l.28.32a4.65,4.65,0,0,1,.73,1,4.66,4.66,0,0,1-1.58-.71A5.35,5.35,0,0,0,86.11,111.1Z"/><path class="cls-4" d="M2.59,67.05a5,5,0,0,0,2.78,3.32c2.81,1.52,5.66.44,8.17-.52,1.69-.63,3.28-1.24,4.51-.94.45.12.76.28.83.45.12.34,0,1.33-2,4.16-.23.32-.51.67-.8,1-1.64,2.1-4.7,6-1.29,9.34a6.72,6.72,0,0,0,4.57,1.52,8.32,8.32,0,0,0,1.93-.22,4.3,4.3,0,0,0,3.3-2.66,1.5,1.5,0,0,0-2.85-.94c-.09.26-.54.53-1.16.68a4.77,4.77,0,0,1-3.7-.53c-1.27-1.24-.54-2.65,1.57-5.35.32-.41.62-.8.88-1.16,1.67-2.36,3.1-4.83,2.32-6.94A3.82,3.82,0,0,0,18.76,66c-2.13-.52-4.24.27-6.28,1-2.19.83-4.08,1.55-5.69.68-.75-.41-1.17-.83-1.25-1.26-.24-1.17,1.5-3.3,2.89-5,2.18-2.67,4.64-5.71,3.18-8.59a1.5,1.5,0,1,0-2.68,1.35c.58,1.15-1.23,3.38-2.83,5.35C4.13,62,2.09,64.5,2.59,67.05Z"/><path class="cls-6" d="M66.69,160.62a3.47,3.47,0,0,0,2.5,2.75c3,.74,6.78-3,10.41-6.91.37-.4.68-.73.91-1a16.91,16.91,0,0,1,5.4-3.39,4.72,4.72,0,0,1-.22.79c-.47,1.33-2.25,2.66-4,3.93-2.72,2-5.8,4.33-5.2,7.85A1.51,1.51,0,0,0,78,165.93l.23,0a25.64,25.64,0,0,0,7.2-2.62l.42-.2a1.5,1.5,0,1,0-1.31-2.7l-.42.2A36.28,36.28,0,0,1,80,162.4a16.08,16.08,0,0,1,3.54-3.16c2.08-1.55,4.22-3.15,5-5.34s.54-3.69-.69-4.46c-3-1.91-9.39,3.88-9.45,3.94-.24.24-.57.6-1,1-5.19,5.58-6.93,6.18-7.5,6,0,0-.19-.18-.31-.63-.64-2.33,3.52-6.91,5.38-8.14a1.5,1.5,0,0,0-1.66-2.5C71.49,150.39,65.44,156.08,66.69,160.62Z"/><path class="cls-5" d="M2.86,118.07c1.89,3,10.14.62,10.23.59.32-.11.78-.29,1.33-.5,7.11-2.75,8.94-2.53,9.39-2.15,0,0,.09.24,0,.71-.45,2.38-6.19,4.66-8.4,5a1.5,1.5,0,0,0,.19,3h.2c2.16-.28,10.09-2.75,11-7.38a3.47,3.47,0,0,0-1-3.57c-2.37-2-7.42-.26-12.39,1.66l-1.23.46a16.74,16.74,0,0,1-6.35.68,6.06,6.06,0,0,1,.55-.6c1-1,3.18-1.41,5.28-1.81,3.33-.63,7.11-1.34,8.11-4.77a1.51,1.51,0,0,0-1-1.86,25.67,25.67,0,0,0-7.62-.8h-.47a1.5,1.5,0,0,0,0,3h.46a37.23,37.23,0,0,1,4.53.2A16.71,16.71,0,0,1,11,111.15c-2.54.48-5.17,1-6.83,2.61S2.1,116.84,2.86,118.07Z"/><path class="cls-2" d="M62.78,136.52a1.5,1.5,0,0,0,.22-3c-1.51-.23-1.71-1-1.58-3.4.06-1.28.15-2.87-1.31-3.44-1.06-.42-2.38-.06-3.91.36-1.18.33-3.09.85-3.59.43.15-1.4,2.22-4.19,3.75-6.27,3-4.09,5.9-8,3.38-10.5-2.11-2.13-6.87-.15-10.5,1.89-3,1.68-7.94,4.89-7.31,7.41a1.5,1.5,0,0,0,3-.38c.67-1.2,5.51-4.77,9.89-6.31a7.67,7.67,0,0,1,2.44-.54,1,1,0,0,1,.4,0c.7.71-2.35,4.83-3.66,6.59-2.35,3.19-4.58,6.19-4.33,8.63a1.38,1.38,0,0,0,.1.4c1.24,3.15,5,2.12,7.27,1.5.44-.12,1-.28,1.45-.38,0,.14,0,.28,0,.41-.09,1.75-.3,5.84,4.13,6.52Z"/><path class="cls-2" d="M31.66,61.93a15.09,15.09,0,0,1-1.18-1c-1.34-1.25-3-2.82-6.26-1.44a1.5,1.5,0,1,0,1.17,2.76c1.46-.61,1.79-.3,3,.87a17,17,0,0,0,1.41,1.23,7.86,7.86,0,0,0,4.25,1.55,8.22,8.22,0,0,1,2.22.49,4.8,4.8,0,0,1,2,1.85,7,7,0,0,0,3.26,2.73,4.71,4.71,0,0,0,2.5,0,3.71,3.71,0,0,1,1.11-.12,10.7,10.7,0,0,1,2,1.64c.31.3.6.56.82.75a1.46,1.46,0,0,0,1,.35,1.5,1.5,0,0,0,1-2.65c-.19-.15-.43-.38-.69-.63a9.74,9.74,0,0,0-3.18-2.33,5.24,5.24,0,0,0-2.56,0,5.39,5.39,0,0,1-.94.13,4.36,4.36,0,0,1-1.88-1.73,7.7,7.7,0,0,0-3.3-2.82,11.23,11.23,0,0,0-3-.68A4.88,4.88,0,0,1,31.66,61.93Z"/><path class="cls-2" d="M92.73,42.38a1.5,1.5,0,1,0,1.34,2.68c1.42-.7,1.77-.41,3.08.67a15.56,15.56,0,0,0,1.49,1.14A7.77,7.77,0,0,0,103,48.15a8.19,8.19,0,0,1,2.25.34,4.87,4.87,0,0,1,2.13,1.72,7.09,7.09,0,0,0,3.44,2.52,4.8,4.8,0,0,0,2.48-.17,4.2,4.2,0,0,1,1.11-.19,10.61,10.61,0,0,1,2.11,1.51l.87.7a1.51,1.51,0,0,0,2.1-.32,1.5,1.5,0,0,0-.32-2.1c-.2-.15-.45-.36-.73-.59a9.35,9.35,0,0,0-3.32-2.11,5.41,5.41,0,0,0-2.56.19,5.56,5.56,0,0,1-.92.19,4.29,4.29,0,0,1-2-1.6,7.71,7.71,0,0,0-3.47-2.6,11,11,0,0,0-3-.49,4.94,4.94,0,0,1-2.85-.76,15.68,15.68,0,0,1-1.24-1C97.65,42.25,95.9,40.8,92.73,42.38Z"/><path class="cls-2" d="M92.53,92.89a1.51,1.51,0,0,0,2.09-.37c.86-1.23,3.27-2.1,6.13-2.22a13.6,13.6,0,0,1,5.44.8c-.45.1-1,.18-1.46.25-2.1.33-4.72.74-6,3.16a3.68,3.68,0,0,0-.41,3.41,4.14,4.14,0,0,0,3,2,1.49,1.49,0,0,0,1.47,1.79,1.51,1.51,0,0,0,1-.37A7.93,7.93,0,0,0,105,99.83a1.53,1.53,0,0,0,.17-1.39,1.51,1.51,0,0,0-1.06-.92l-.91-.2a8.27,8.27,0,0,1-2.15-.64,2.05,2.05,0,0,1,.28-.73c.58-1,1.85-1.31,3.88-1.63,1.74-.27,3.72-.58,5-2a1.49,1.49,0,0,0,0-2c-2-2.45-6.33-3.18-9.64-3-1.86.08-6.41.58-8.47,3.49A1.52,1.52,0,0,0,92.53,92.89Z"/><path class="cls-3" d="M40.49,2a1.49,1.49,0,0,0-1.8,1.12,7,7,0,0,0,1.6,6.53c2.73,3.06,8,4.26,11.52,4.26a12.43,12.43,0,0,0,1.43-.08,1.5,1.5,0,0,0-.34-3c-2.78.32-8.08-.63-10.37-3.2a4,4,0,0,1-.92-3.85A1.51,1.51,0,0,0,40.49,2Z"/><path class="cls-3" d="M31.73,155.35a1.49,1.49,0,0,0-1.34-2,38.52,38.52,0,0,0-6.21.31,35.26,35.26,0,0,1-5.75.3,1.5,1.5,0,0,0-.17,3,35.37,35.37,0,0,0,5.76-.27c-2.56.81-5.23,1.86-6.09,4.59A1.51,1.51,0,0,0,19,163.23a22.36,22.36,0,0,0,3,.33c1.38.09,5.53.39,6.16,1.29a5.83,5.83,0,0,1-.71.6,5.18,5.18,0,0,0-2.25,3.13,1.5,1.5,0,0,0,1.22,1.73,1.14,1.14,0,0,0,.26,0,1.49,1.49,0,0,0,1.47-1.24c.08-.43.6-.84,1.16-1.27.92-.73,2.65-2.09,1.55-4.32s-5-2.68-8.46-2.92a19.17,19.17,0,0,1,3.32-1.23C28.29,158.57,31,157.77,31.73,155.35Z"/><path class="cls-3" d="M105.82,146a1.5,1.5,0,0,0-2.12,0c-3.6,3.5-2.4,7.37-1.43,10.47s1.41,4.91-.27,6.76A7.5,7.5,0,0,1,98.66,165a9.54,9.54,0,0,0-4.59,2.82,10.33,10.33,0,0,0-1.63,7.56A3.57,3.57,0,0,0,94.36,178a1.56,1.56,0,0,0,.63.14,1.5,1.5,0,0,0,.63-2.86s-.16-.15-.26-.57a7.44,7.44,0,0,1,1-5,6.85,6.85,0,0,1,3.28-1.89,10.34,10.34,0,0,0,4.54-2.66c2.92-3.22,1.81-6.8.91-9.67-1-3.23-1.51-5.32.66-7.44A1.49,1.49,0,0,0,105.82,146Z"/><path class="cls-2" d="M71.24,144.32a1.1,1.1,0,0,0,.31,0,1.49,1.49,0,0,0,1.46-1.2c.57-2.69,4-5.13,7.6-5.32,1.52-.09,4.22.21,5.18,3.15a1.5,1.5,0,0,0,2.85-.93c-1.14-3.49-4.19-5.43-8.19-5.22-4.36.24-9.43,3.19-10.37,7.71A1.49,1.49,0,0,0,71.24,144.32Z"/><path class="cls-3" d="M79.87,40a1.5,1.5,0,0,0-2.59,1.51c.89,1.53.87,4.94,0,8.69a1.5,1.5,0,0,0,1.45,1.86,21.71,21.71,0,0,1,5.17.64,1.2,1.2,0,0,0,.38,0,1.5,1.5,0,0,0,.38-2.95,22.26,22.26,0,0,0-4.09-.66C81,46.53,81.35,42.58,79.87,40Z"/><path class="cls-2" d="M38.83,169.85a1.49,1.49,0,0,1,0-1.39c.47-1,1-1.92,1.45-2.89A54.77,54.77,0,0,0,45,154.16a1.49,1.49,0,0,1,2-1c3.79,1.42,8.81,9.71,9.57,13A1.51,1.51,0,0,1,55.3,168,52.78,52.78,0,0,0,50,169.12a37.31,37.31,0,0,1-8.79,1.55q-.64,0-1.26-.06A1.49,1.49,0,0,1,38.83,169.85Zm3.74-2.25a46,46,0,0,0,6.73-1.38c1.32-.34,2.59-.67,3.81-.92a28.72,28.72,0,0,0-5.76-8.41,67.65,67.65,0,0,1-4.44,10C42.8,167.16,42.69,167.38,42.57,167.6Z"/><path class="cls-2" d="M0,134.51a6.5,6.5,0,0,1,4.54,6.19A6.5,6.5,0,0,1,0,146.9V150a9.52,9.52,0,0,0,7.54-9.3A9.51,9.51,0,0,0,0,131.41Z"/><path class="cls-2" d="M2.62,260.67a2.29,2.29,0,0,0-2.29-2.29,1.84,1.84,0,0,0-.33,0v4.51a1.86,1.86,0,0,0,.33,0A2.3,2.3,0,0,0,2.62,260.67Z"/><path class="cls-2" d="M1.88,231.81A10.94,10.94,0,0,1,4,233.32c.33.28.63.52.87.7a1.43,1.43,0,0,0,.88.29,1.5,1.5,0,0,0,.89-2.71c-.2-.15-.45-.36-.73-.59a9.35,9.35,0,0,0-3.32-2.11,5.41,5.41,0,0,0-2.56.19H0v3.08L.77,232A4.2,4.2,0,0,1,1.88,231.81Z"/><path class="cls-7" d="M2.76,178.38a5.37,5.37,0,0,0,3.05,1,4.48,4.48,0,0,0,1.25-.17,4.15,4.15,0,0,0,2.7-2.38c2.17-4.65-1.18-15.11-2.28-17.5a1.5,1.5,0,1,0-2.73,1.25c1.18,2.58,3.81,11.74,2.29,15-.26.56-.55.7-.77.76a2,2,0,0,1-1.81-.43C2.48,174.55.79,171,0,168.32v7.08A11,11,0,0,0,2.76,178.38Z"/><path class="cls-4" d="M276.29,10.85A2.29,2.29,0,1,0,274,8.56,2.29,2.29,0,0,0,276.29,10.85Z"/><path class="cls-2" d="M294,21.58a2.29,2.29,0,1,0,2.29,2.29A2.29,2.29,0,0,0,294,21.58Z"/><path class="cls-5" d="M247.05,49.87a2.29,2.29,0,1,0-2.29-2.29A2.28,2.28,0,0,0,247.05,49.87Z"/><path class="cls-6" d="M224,1.36A2.3,2.3,0,0,0,226.13,0H222A2.3,2.3,0,0,0,224,1.36Z"/><path class="cls-7" d="M296.26,89.24A2.29,2.29,0,1,0,294,91.53,2.28,2.28,0,0,0,296.26,89.24Z"/><path class="cls-4" d="M264.21,40A6.17,6.17,0,1,1,258,46.19,6.18,6.18,0,0,1,264.21,40Zm0,3a3.17,3.17,0,1,0,3.17,3.17A3.17,3.17,0,0,0,264.21,43Z"/><path class="cls-5" d="M291.55,0c-.4,3.84.44,6.69,2.5,8.48a10,10,0,0,0,6.74,2.07,39.23,39.23,0,0,0,11-2.11,1.5,1.5,0,0,0-.9-2.87C303.28,8,298.28,8.18,296,6.22,294.69,5.06,294.2,3,294.56,0Z"/><path class="cls-7" d="M266,.15A1.51,1.51,0,0,0,267.06,2a1.2,1.2,0,0,0,.38,0A1.51,1.51,0,0,0,268.89.91c.08-.3.16-.61.25-.91H266Z"/><path class="cls-2" d="M328.24,27.79a1.47,1.47,0,0,0-.83,1.35c0,1.07-.16,3.35-.35,5.77-.65,8.62-.55,9.6.16,10.36a1.67,1.67,0,0,0,1.17.52h0l.24,0,.16,0,8.74-2.34V40.3l-7.91,2.11c0-1.84.27-5.11.44-7.27.08-1.1.16-2.14.22-3.06,2.61,2,5.19,4,7.25,5.68V33.92c-1.95-1.54-4.46-3.49-7.71-6A1.48,1.48,0,0,0,328.24,27.79Z"/><path class="cls-3" d="M240.16,2.48a1.5,1.5,0,1,0,2.34,1.87A9.76,9.76,0,0,1,244,3c0,.27-.05.58-.07.83-.15,1.39-.35,3.3,1.07,4.55a5.59,5.59,0,0,0,4.16,1.43A7,7,0,0,0,251.94,9a11.52,11.52,0,0,0,2.54,3.51,1.47,1.47,0,0,0,.93.33,1.51,1.51,0,0,0,.94-2.68A10.94,10.94,0,0,1,254,6.2a1.49,1.49,0,0,0-2.6-.57A4.13,4.13,0,0,1,249,6.84,2.52,2.52,0,0,1,247,6.15c-.26-.23-.15-1.33-.08-2,.13-1.26.33-3.32-1.41-4.16h-2.17A9.79,9.79,0,0,0,240.16,2.48Z"/><path class="cls-5" d="M304.89,27.16a3.45,3.45,0,0,0-2.85,3.2,5.5,5.5,0,0,0,3.49,4.89,1.61,1.61,0,0,0,.53.1,1.49,1.49,0,0,0,1.4-1,1.5,1.5,0,0,0-.86-1.94A2.58,2.58,0,0,1,305,30.5c0-.18.23-.33.65-.45a3.4,3.4,0,0,1,2,.34c1.49.52,3.53,1.22,5.93-.63a1.51,1.51,0,0,0,.32-2,8.56,8.56,0,0,0-1.63-1.55,25.73,25.73,0,0,1-1.93-1.75,7.33,7.33,0,0,1,.8-.06,6.3,6.3,0,0,1,1.15.57c1.25.73,3.34,1.93,5.15.29a2.74,2.74,0,0,0,1-2,4.7,4.7,0,0,0-1.54-3.19l-.18-.2a1.5,1.5,0,1,0-2.32,1.9l.28.32a5,5,0,0,1,.73.95,4.78,4.78,0,0,1-1.58-.71,5.32,5.32,0,0,0-2.69-1c-.93,0-3.41.07-4,1.87s.93,3.21,2.56,4.61c-.29-.07-.61-.18-1-.31A6.11,6.11,0,0,0,304.89,27.16Z"/><path class="cls-6" d="M291.71,70.9a3.47,3.47,0,0,0,2.49,2.75c3,.73,6.79-3,10.42-6.91.37-.4.68-.73.91-1a16.8,16.8,0,0,1,5.4-3.39,6,6,0,0,1-.22.79c-.47,1.33-2.25,2.65-4,3.93-2.72,2-5.8,4.33-5.2,7.85A1.5,1.5,0,0,0,303,76.21l.23,0a25.64,25.64,0,0,0,7.2-2.62l.42-.2a1.5,1.5,0,1,0-1.31-2.7l-.42.2A36.41,36.41,0,0,1,305,72.68a16.42,16.42,0,0,1,3.55-3.16c2.07-1.55,4.22-3.15,5-5.34s.55-3.69-.68-4.46c-3-1.91-9.39,3.88-9.45,3.94-.24.24-.57.6-1,1-5.19,5.58-6.93,6.18-7.5,6,0,0-.19-.18-.31-.63C294,67.77,298.13,63.2,300,62a1.5,1.5,0,0,0-1.66-2.5C296.51,60.67,290.46,66.36,291.71,70.9Z"/><path class="cls-5" d="M229.22,24c-1.65,1.63-2.1,3.08-1.34,4.31,1.89,3,10.14.62,10.23.59.32-.11.78-.29,1.33-.5,7.12-2.75,8.94-2.53,9.39-2.15,0,0,.09.24,0,.71-.44,2.38-6.19,4.66-8.4,4.95a1.5,1.5,0,0,0,.2,3h.2c2.16-.29,10.09-2.75,10.95-7.38a3.49,3.49,0,0,0-1-3.57c-2.37-2-7.42-.26-12.39,1.66-.51.2-.94.36-1.24.46a16.67,16.67,0,0,1-6.34.68,6.06,6.06,0,0,1,.55-.6c1-1,3.18-1.41,5.28-1.81,3.33-.63,7.11-1.34,8.11-4.77a1.51,1.51,0,0,0-1-1.86,25.74,25.74,0,0,0-7.63-.8h-.46a1.5,1.5,0,0,0,0,3h.47a37.23,37.23,0,0,1,4.53.2,16.71,16.71,0,0,1-4.57,1.29C233.51,21.91,230.88,22.41,229.22,24Z"/><path class="cls-2" d="M267,30.3a1.5,1.5,0,0,0,2.95-.38c.67-1.2,5.51-4.77,9.89-6.31a7.62,7.62,0,0,1,2.44-.54,1,1,0,0,1,.4.05c.7.71-2.35,4.83-3.66,6.59-2.35,3.19-4.58,6.19-4.33,8.63a1.12,1.12,0,0,0,.1.4c1.24,3.15,5,2.12,7.27,1.5.44-.12,1-.28,1.45-.38,0,.14,0,.28,0,.41-.09,1.75-.3,5.84,4.13,6.52h.23a1.5,1.5,0,0,0,.22-3c-1.51-.23-1.71-1-1.58-3.4.06-1.28.14-2.87-1.32-3.44-1.05-.42-2.37-.06-3.91.36-1.17.33-3.08.85-3.58.43.15-1.4,2.22-4.19,3.75-6.27,3-4.09,5.9-8,3.38-10.5-2.11-2.13-6.87-.15-10.5,1.89C271.26,24.57,266.32,27.78,267,30.3Z"/><path class="cls-2" d="M317.18,1.08a1.5,1.5,0,0,0,2.46,1.72c.86-1.23,3.27-2.1,6.13-2.22a13.58,13.58,0,0,1,5.44.8c-.45.1-.95.18-1.46.25-2.1.33-4.72.74-6.05,3.16a3.74,3.74,0,0,0-.41,3.41,4.17,4.17,0,0,0,3,2,1.5,1.5,0,0,0,2.46,1.42A8.17,8.17,0,0,0,330,10.11a1.5,1.5,0,0,0,.16-1.39,1.48,1.48,0,0,0-1.05-.92l-.91-.2A8.06,8.06,0,0,1,326,7a2.55,2.55,0,0,1,.29-.72c.58-1.05,1.85-1.32,3.88-1.63,1.74-.27,3.72-.58,5-2a1.49,1.49,0,0,0,.05-2,6.25,6.25,0,0,0-.64-.62H318.17A6,6,0,0,0,317.18,1.08Z"/><path class="cls-3" d="M255.41,63.67a38.52,38.52,0,0,0-6.21.31,36.48,36.48,0,0,1-5.76.3,1.49,1.49,0,0,0-1.58,1.42,1.51,1.51,0,0,0,1.42,1.58A35.37,35.37,0,0,0,249,67c-2.57.81-5.23,1.86-6.09,4.59a1.46,1.46,0,0,0,.13,1.19,1.5,1.5,0,0,0,1,.72,22.36,22.36,0,0,0,3,.33c1.38.09,5.53.39,6.16,1.29a7.9,7.9,0,0,1-.71.6,5.18,5.18,0,0,0-2.25,3.13,1.5,1.5,0,0,0,1.22,1.73,1.14,1.14,0,0,0,.26,0,1.49,1.49,0,0,0,1.47-1.24c.08-.43.6-.84,1.15-1.27.93-.73,2.66-2.09,1.56-4.32s-5-2.68-8.47-2.92a19.6,19.6,0,0,1,3.33-1.23c2.57-.78,5.23-1.58,6-4a1.49,1.49,0,0,0-1.34-2Z"/><path class="cls-3" d="M323.68,75.32a9.54,9.54,0,0,0-4.59,2.82,10.32,10.32,0,0,0-1.63,7.56,3.54,3.54,0,0,0,1.92,2.61,1.56,1.56,0,0,0,.63.14,1.5,1.5,0,0,0,.63-2.86s-.16-.15-.26-.57a7.44,7.44,0,0,1,1-5,6.85,6.85,0,0,1,3.28-1.89,10.27,10.27,0,0,0,4.54-2.67c2.92-3.21,1.81-6.79.91-9.66-1-3.23-1.51-5.32.66-7.44a1.5,1.5,0,1,0-2.09-2.14c-3.6,3.5-2.4,7.37-1.43,10.47s1.41,4.91-.27,6.76A7.5,7.5,0,0,1,323.68,75.32Z"/><path class="cls-2" d="M295.1,52.83a1.49,1.49,0,0,0,1.16,1.77,1.1,1.1,0,0,0,.31,0,1.49,1.49,0,0,0,1.46-1.2c.56-2.69,4-5.13,7.6-5.32,1.52-.09,4.22.21,5.18,3.15a1.49,1.49,0,0,0,1.89,1,1.51,1.51,0,0,0,1-1.89c-1.14-3.49-4.2-5.43-8.2-5.22C301.11,45.36,296,48.31,295.1,52.83Z"/><path class="cls-2" d="M281.57,76.42a1.45,1.45,0,0,1-.22,1.18,1.5,1.5,0,0,1-1,.64,49.56,49.56,0,0,0-5.26,1.16A37.31,37.31,0,0,1,266.27,81q-.64,0-1.26-.06a1.5,1.5,0,0,1-1.2-2.15c.47-1,1-1.92,1.45-2.88A56,56,0,0,0,270,64.44a1.47,1.47,0,0,1,.75-1,1.51,1.51,0,0,1,1.23-.08C275.8,64.81,280.82,73.1,281.57,76.42Zm-3.44-.84a28.72,28.72,0,0,0-5.76-8.41,67.76,67.76,0,0,1-4.44,10l-.34.66a46,46,0,0,0,6.73-1.38C275.64,76.16,276.91,75.83,278.13,75.58Z"/><path class="cls-7" d="M181.46,1.81A2.3,2.3,0,0,0,183.7,0h-4.47A2.29,2.29,0,0,0,181.46,1.81Z"/><path class="cls-2" d="M6.85,40c-.11-.45-.23-.88-6.85-6.1v3.84l2.36,1.91L0,40.3v3.1l5.79-1.54A1.5,1.5,0,0,0,6.85,40Z"/></g></g></g></svg>